<?xml version="1.0" encoding="UTF-8" standalone="no"?>
<!-- Created with Inkscape (http://www.inkscape.org/) -->

<svg
   width="11.310532mm"
   height="13.228411mm"
   viewBox="0 0 11.310532 13.228411"
   version="1.1"
   id="svg1"
   xml:space="preserve"
   inkscape:version="1.4.2 (f4327f4, 2025-05-13)"
   sodipodi:docname="20251123_Jaxfr-logo-small-icon.svg"
   inkscape:export-filename="20251123_Jaxfr-logo.svg"
   inkscape:export-xdpi="96"
   inkscape:export-ydpi="96"
   xmlns:inkscape="http://www.inkscape.org/namespaces/inkscape"
   xmlns:sodipodi="http://sodipodi.sourceforge.net/DTD/sodipodi-0.dtd"
   xmlns="http://www.w3.org/2000/svg"
   xmlns:svg="http://www.w3.org/2000/svg"><sodipodi:namedview
     id="namedview1"
     pagecolor="#ffffff"
     bordercolor="#000000"
     borderopacity="0.25"
     inkscape:showpageshadow="2"
     inkscape:pageopacity="0.0"
     inkscape:pagecheckerboard="0"
     inkscape:deskcolor="#d1d1d1"
     inkscape:document-units="mm"
     inkscape:zoom="5.7513469"
     inkscape:cx="94.586539"
     inkscape:cy="62.507097"
     inkscape:window-width="1920"
     inkscape:window-height="1009"
     inkscape:window-x="1912"
     inkscape:window-y="-5"
     inkscape:window-maximized="1"
     inkscape:current-layer="layer1"><inkscape:page
       x="0"
       y="0"
       width="11.310532"
       height="13.228411"
       id="page26"
       margin="0"
       bleed="0" /></sodipodi:namedview><defs
     id="defs1"><linearGradient
       id="swatch17"
       inkscape:swatch="solid"><stop
         style="stop-color:#000000;stop-opacity:1;"
         offset="0"
         id="stop17" /></linearGradient></defs><g
     inkscape:label="圖層 1"
     inkscape:groupmode="layer"
     id="layer1"
     transform="translate(-134.85113,-94.925824)"><path
       style="font-size:64.8717px;font-family:'Liberation Mono';-inkscape-font-specification:'Liberation Mono';fill:#bababa;stroke-width:0.742633"
       d="m 140.1704,103.51735 q 0,0.94137 -0.44139,1.46386 -0.44139,0.51799 -1.2401,0.51799 -0.71884,0 -1.14762,-0.40088 -0.42878,-0.40087 -0.57591,-1.26568 l 0.7861,-0.13963 q 0.0757,0.53149 0.31948,0.81976 0.24802,0.28827 0.62215,0.28827 0.87859,0 0.87859,-1.26568 v -3.49977 h -1.30737 v -0.702652 h 2.10607 z"
       id="text22"
       aria-label="J" /><path
       style="fill:#bababa;fill-opacity:1;stroke-width:0.0363466"
       d="m 140.93774,99.331745 v 7.292885 l 0.78649,-0.30387 v -6.18465 h 2.84208 v -0.804365 z"
       id="path26" /><path
       id="path24"
       style="fill:#464646;fill-opacity:1;stroke-width:0.0363466"
       d="m 140.54449,95.506525 -4.80826,1.376415 v 8.81221 l 4.82615,1.9126 0.39321,-0.17876 v -5.27302 h 3.02088 v -0.78649 h -3.0387 v -2.484637 l 3.66426,-1.179703 v 1.608764 h 0.75079 V 96.86505 Z m 0,0.786492 3.16386,0.911647 h -0.0179 l -3.12808,1.018842 -3.11019,-1.018842 h 0.0179 z m -4.03966,1.394234 3.66434,1.233371 v 7.721878 l -3.66434,-1.46572 z" /><path
       style="fill:#464646;fill-opacity:1;stroke-width:0.0363466"
       d="m 144.58419,100.13611 h 0.76861 v 5.55904 l -3.64644,1.46572 v -0.85798 l 2.85995,-1.12611 z"
       id="path25" /></g></svg>
