<?xml version="1.0" encoding="UTF-8" standalone="no"?>
<!-- Created with Inkscape (http://www.inkscape.org/) -->
<svg
   xmlns:svg="http://www.w3.org/2000/svg"
   xmlns="http://www.w3.org/2000/svg"
   version="1.0"
   width="1133.8583"
   height="328.11023"
   id="svg2">
  <defs
     id="defs4" />
  <g
     transform="translate(-2188.2877,180.34638)"
     id="layer1">
    <g
       transform="translate(35.433087,35.390432)"
       id="g8371">
      <path
         d="M 2316.9891,76.982986 C 2387.9977,76.982986 2445.6439,19.363936 2445.6439,-51.672624 C 2445.6439,-122.71826 2387.9977,-180.34638 2316.9891,-180.34638 C 2245.9158,-180.34638 2188.2877,-122.71826 2188.2877,-51.672624 C 2188.2877,19.363936 2245.9158,76.982986 2316.9891,76.982986"
         id="path8333"
         style="fill:#ed1c24;fill-opacity:1;fill-rule:nonzero;stroke:none" />
      <path
         d="M 2628.324,-73.678074 C 2634.5698,-73.678074 2632.3366,-66.615264 2634.6424,-63.183724 C 2634.7419,-61.676744 2633.081,-62.275904 2632.2458,-61.858314 C 2623.5032,-64.963044 2613.4627,-62.820594 2604.3482,-62.103424 C 2601.0983,-61.340854 2598.1388,-59.852044 2595.1524,-58.444924 C 2587.4266,-56.602064 2579.4472,-55.303884 2571.168,-54.722884 C 2567.8998,-55.639774 2564.3049,-54.931684 2561.6991,-53.070654 C 2560.9641,-53.070654 2560.1108,-53.706124 2559.911,-54.432384 C 2559.2843,-57.627894 2559.4477,-61.141134 2558.0497,-64.027994 C 2557.6865,-64.963044 2558.6132,-65.516804 2559.1666,-65.961634 C 2560.9641,-66.333844 2562.153,-65.335244 2563.7239,-65.335244 C 2570.0604,-65.716524 2576.288,-65.144604 2581.6805,-67.922524 C 2586.3103,-68.567064 2590.4863,-70.618734 2595.3427,-70.990934 C 2602.1971,-71.944144 2608.1792,-76.664784 2615.9777,-74.531414 C 2619.6722,-72.951814 2624.257,-74.531414 2628.324,-73.678074 z M 2532.6127,-116.63589 C 2534.347,-111.29794 2534.5372,-104.08988 2532.4224,-98.879024 C 2530.4433,-96.191894 2526.9479,-96.473314 2523.9521,-96.473314 C 2521.928,-96.636724 2519.9396,-97.671634 2518.9322,-99.605274 C 2518.8415,-103.6269 2521.737,-106.48652 2523.2171,-109.94529 C 2525.7227,-112.74136 2527.3023,-116.08213 2529.7984,-118.6694 C 2531.2873,-119.3321 2532.1319,-117.75251 2532.6127,-116.63589 z M 2569.1068,-133.9207 C 2569.3066,-132.87671 2569.6973,-131.69655 2569.5252,-130.67072 C 2565.5119,-128.82785 2562.4348,-124.81531 2557.7592,-124.53389 C 2555.6443,-125.09673 2552.748,-124.42495 2551.3689,-126.20427 C 2550.6237,-129.19098 2554.7089,-129.72659 2555.3807,-132.3411 C 2556.7518,-135.20072 2560.0105,-136.4989 2560.8552,-139.57639 C 2565.0217,-141.63713 2566.0566,-135.79988 2569.1068,-133.9207 z M 2614.6705,-144.59661 C 2615.5057,-142.08196 2614.2986,-139.4039 2614.0982,-136.79847 C 2609.8133,-131.40605 2603.8943,-127.77479 2597.3857,-126.68541 C 2591.7935,-121.47455 2583.5506,-121.18405 2576.1704,-122.21896 C 2572.3663,-123.80764 2573.1107,-128.42842 2572.8202,-131.77826 C 2575.5436,-133.36693 2578.8749,-130.46192 2581.4895,-132.59529 C 2587.3271,-135.04639 2593.1008,-137.36132 2599.3371,-138.75028 C 2604.2575,-140.51144 2607.6164,-147.08402 2613.3995,-145.99465 L 2614.6705,-144.59661 z M 2550.4429,-150.07981 C 2550.4429,-148.51837 2548.8538,-147.57424 2548.2997,-146.3033 C 2546.0846,-142.08196 2548.1094,-137.27962 2549.3165,-133.36693 C 2548.7725,-126.83974 2551.005,-121.18405 2551.6681,-115.05629 C 2551.1139,-109.48231 2551.5773,-104.15343 2551.8133,-98.606684 C 2552.0312,-88.575324 2551.3689,-77.972034 2551.2229,-67.922524 C 2550.2606,-64.291254 2550.9324,-59.960974 2550.1524,-56.211704 C 2547.2837,-50.764804 2539.7481,-52.880014 2534.5372,-52.199154 C 2540.0299,-69.974184 2540.1207,-88.765964 2542.181,-107.24 C 2542.7265,-115.22878 2543.4338,-123.80764 2542.6349,-131.69655 C 2543.924,-136.99819 2542.3626,-142.08196 2539.385,-146.10358 C 2541.5187,-148.05539 2544.2872,-148.34589 2546.5567,-150.07981 C 2547.5647,-150.72436 2549.7072,-151.7502 2550.4429,-150.07981 z M 2605.6744,-115.05629 C 2596.6231,-110.32658 2587.0547,-107.14014 2578.3303,-102.03822 C 2577.3869,-101.22119 2576.9053,-99.868544 2578.0398,-99.087824 C 2580.6543,-98.325264 2583.0785,-99.605274 2585.6836,-99.868544 C 2590.6954,-101.56616 2595.5969,-103.25469 2600.6444,-104.81614 C 2601.8427,-105.48792 2602.9509,-104.44393 2603.6859,-103.42718 C 2604.5298,-101.1304 2603.4317,-98.960734 2602.0337,-97.208644 C 2595.6971,-93.867884 2588.7345,-92.179344 2581.8526,-90.409104 C 2580.8547,-90.109534 2579.9099,-89.410514 2579.538,-88.293894 C 2579.538,-87.449634 2579.3383,-86.269474 2580.2911,-85.652154 C 2584.0226,-84.762494 2588.1891,-85.407044 2591.7935,-86.269474 C 2596.9136,-88.638864 2605.2837,-87.449634 2606.7812,-94.612294 C 2606.2096,-101.22119 2609.387,-106.20509 2608.2794,-113.10449 C 2608.4429,-114.61146 2607.063,-115.41034 2605.6744,-115.05629 z M 2617.5573,-120.90263 C 2619.6722,-118.57862 2625.7458,-119.88587 2624.3202,-115.22878 L 2620.1537,-108.90131 C 2619.6003,-101.56616 2616.6219,-95.338544 2616.1498,-88.021554 C 2614.9428,-85.488744 2614.5891,-81.013214 2611.0392,-81.231094 C 2608.6244,-82.511114 2606.5088,-80.468524 2604.2575,-80.168954 C 2597.4764,-79.115884 2591.3302,-75.620794 2584.2768,-76.192714 C 2581.5621,-77.036984 2578.5118,-75.729734 2575.625,-76.020234 C 2574.4361,-77.527204 2575.0716,-79.733194 2574.5269,-81.494364 C 2571.2311,-90.799464 2570.8135,-101.22119 2567.8998,-110.76233 C 2568.1083,-111.50674 2568.4808,-112.28746 2569.2071,-112.74136 C 2570.714,-113.28605 2572.4658,-112.81399 2573.9459,-112.5598 C 2582.8788,-115.33772 2591.1493,-119.72247 2600.4359,-121.73782 C 2605.6744,-126.49477 2612.1649,-121.83768 2617.5573,-120.90263 z M 2959.0499,-79.833054 C 2958.7776,-75.166884 2955.8725,-71.072634 2951.706,-68.821254 C 2947.7756,-68.476284 2947.6209,-72.670394 2945.9418,-74.903624 C 2945.7689,-77.391034 2948.9187,-75.920374 2950.3262,-76.755564 C 2953.0039,-77.972034 2955.4186,-80.005544 2958.5059,-80.386824 L 2959.0499,-79.833054 z M 3013.1557,-103.25469 C 3009.7154,-102.11085 3007.1097,-99.087824 3003.66,-97.862274 L 3003.4058,-96.119264 C 3003.66,-94.675844 3004.9585,-93.695404 3006.1663,-93.023614 C 3010.4599,-90.518044 3013.0468,-95.447484 3016.1246,-97.381134 C 3016.9504,-98.706544 3019.111,-99.705134 3018.4573,-101.56616 C 3017.5139,-103.50888 3014.9989,-102.89157 3013.1557,-103.25469 z M 3009.2703,-118.6694 C 3006.0116,-117.02625 3002.7616,-115.05629 2999.2124,-114.08493 C 2997.0605,-112.90477 2997.2515,-110.21764 2997.1694,-107.99349 C 2997.4323,-106.68624 2997.3597,-104.81614 2999.2124,-105.01586 L 3007.2099,-108.62896 C 3010.7235,-110.04515 3009.9784,-114.20295 3011.0953,-117.19874 C 3011.014,-118.02485 3010.1875,-118.86004 3009.2703,-118.6694 z M 3011.4766,-136.70769 L 3002.8436,-132.2594 C 3000.7825,-131.01569 2998.0315,-131.89627 2996.534,-129.28176 C 2995.8716,-127.23918 2995.4809,-123.96196 2997.2515,-122.58208 C 3003.0158,-124.16168 3008.78,-126.20427 3013.2196,-130.57086 C 3013.6459,-132.3411 3014.545,-134.2112 3013.8827,-136.13577 C 3013.3286,-136.99819 3012.3205,-136.4989 3011.4766,-136.70769 z M 3019.5743,-148.12801 C 3022.4336,-145.90386 3025.502,-143.8522 3027.9349,-140.99258 C 3028.3983,-138.66857 3024.8397,-138.66857 3025.3299,-136.4535 C 3026.4374,-130.0988 3023.369,-125.2783 3023.0872,-119.50459 C 3022.252,-115.33772 3021.7255,-111.06191 3021.4081,-106.68624 C 3021.4081,-106.03261 3021.6078,-104.81614 3022.6427,-105.01586 C 3023.8316,-105.48792 3025.0394,-105.29728 3025.9741,-104.34407 C 3027.4629,-102.11085 3030.341,-100.386 3030.0592,-97.671634 C 3029.0519,-96.636724 3027.3452,-97.290354 3026.2558,-96.473314 C 3024.5128,-93.695404 3022.252,-91.516644 3019.7464,-89.410514 C 3019.2562,-88.765964 3019.3746,-87.703814 3019.5743,-87.086504 C 3024.3131,-82.965024 3029.2422,-78.834464 3035.098,-76.864504 C 3041.7069,-74.640354 3048.5336,-73.015364 3054.9697,-70.164824 C 3048.1974,-65.044744 3038.5295,-67.096404 3030.341,-65.616664 C 3025.6385,-65.244464 3021.2447,-67.287044 3019.2562,-71.562864 C 3013.8827,-76.928044 3010.5506,-83.836524 3004.514,-88.076024 C 3004.6041,-90.899324 3002.5619,-92.714964 3000.6918,-94.675844 C 3000.0381,-95.138824 2999.3024,-95.737984 2998.558,-94.948184 C 2996.3342,-91.089974 2998.0315,-85.488744 2997.1694,-81.349114 C 2996.9697,-78.416864 2995.5717,-75.448314 2996.8789,-72.670394 C 2998.667,-72.579614 2999.9655,-74.440634 3001.7085,-74.903624 C 3003.8691,-75.620794 3005.5395,-78.062814 3008.0451,-77.681534 C 3008.8708,-76.092854 3007.8453,-74.331694 3007.3007,-72.851954 C 3004.3136,-64.518214 2995.0996,-59.098554 2987.9729,-55.058774 C 2985.4586,-54.840894 2984.0424,-50.646794 2981.1643,-52.607674 C 2979.5033,-55.567154 2974.1109,-57.718674 2975.5903,-62.103424 C 2976.8888,-63.265424 2979.04,-62.103424 2980.4293,-63.102014 C 2987.9729,-65.889014 2985.7215,-74.830994 2987.9729,-80.913354 C 2988.5997,-85.488744 2989.9795,-89.864414 2989.453,-94.948184 C 2988.2452,-99.995644 2990.079,-105.42437 2988.872,-110.21764 C 2988.7994,-116.91732 2990.4698,-123.68962 2987.5103,-130.00801 C 2986.7564,-132.78593 2985.3584,-135.96328 2986.5662,-139.04986 C 2992.8758,-136.79847 2998.667,-139.80334 3003.3063,-142.2726 C 3008.2353,-143.8522 3012.6568,-146.82984 3017.795,-148.22787 L 3019.5743,-148.12801 z M 2984.1514,-129.4724 C 2984.996,-129.11836 2985.1681,-128.16515 2984.9139,-127.50244 C 2983.9785,-124.9878 2981.3734,-124.29786 2979.3123,-123.60792 C 2974.6825,-124.29786 2974.2104,-129.36347 2971.8683,-132.3411 C 2976.2534,-132.2594 2980.157,-130.67072 2984.1514,-129.4724 z M 2969.2632,-144.88711 C 2971.2422,-144.31519 2973.1762,-142.82637 2974.3833,-140.99258 C 2973.657,-137.36132 2968.2733,-140.32988 2967.42,-136.25379 C 2967.2202,-133.36693 2968.5457,-129.63581 2966.8753,-127.03946 C 2963.8708,-124.16168 2961.6833,-120.99341 2960.9926,-117.19874 C 2960.8931,-116.23645 2961.6833,-115.98227 2962.2912,-115.51928 C 2963.5171,-115.14708 2964.5331,-115.80978 2965.1867,-116.91732 C 2965.7409,-118.02485 2965.1054,-119.72247 2966.5848,-120.53042 C 2968.3641,-120.81184 2970.3976,-121.06603 2972.0593,-120.81184 C 2972.5495,-120.1673 2972.6308,-119.14146 2973.5568,-118.94174 C 2975.2185,-118.47876 2977.6601,-119.96758 2978.1874,-118.02485 C 2978.2869,-112.63243 2969.6445,-112.28746 2971.3054,-106.85872 C 2971.9866,-105.56962 2973.7296,-106.31403 2974.6825,-106.68624 C 2976.3536,-106.96766 2978.6587,-108.62896 2979.966,-106.85872 C 2980.5288,-102.11085 2976.8162,-99.087824 2973.8291,-96.028484 C 2972.4318,-94.802934 2970.017,-94.948184 2969.5537,-92.714964 C 2969.5537,-91.371394 2968.7185,-89.120014 2970.1979,-88.293894 C 2973.3752,-89.120014 2975.5271,-92.642334 2978.8403,-93.023614 C 2980.2478,-92.914674 2980.5288,-91.371394 2980.9646,-90.409104 C 2980.8927,-88.076024 2982.7802,-86.423794 2982.1091,-84.108864 C 2981.1643,-83.446164 2980.2478,-84.217804 2979.3123,-84.108864 C 2976.2534,-82.710834 2973.657,-80.096324 2970.3976,-79.560714 C 2968.8906,-78.516724 2968.9908,-76.555844 2969.2632,-75.166884 C 2972.0593,-73.478354 2974.6825,-77.236704 2977.6601,-75.729734 C 2979.7663,-68.122234 2971.5051,-64.963044 2967.0481,-60.941414 C 2961.5918,-58.535704 2955.4186,-57.627894 2949.3,-57.346464 C 2946.8765,-56.947034 2944.7522,-54.232664 2942.3192,-55.639774 C 2940.5581,-57.346464 2939.6953,-59.634164 2940.0947,-62.103424 C 2941.3933,-63.102014 2942.9002,-61.967254 2944.2896,-61.858314 C 2947.6209,-62.648114 2950.3988,-64.863184 2953.6851,-65.961634 C 2956.272,-67.287044 2959.7762,-67.831734 2961.2831,-70.709514 C 2962.2185,-76.310734 2962.2912,-82.138914 2962.8903,-87.894464 C 2960.5387,-90.799464 2957.3795,-87.703814 2954.6837,-87.331614 C 2952.7228,-87.531334 2949.8628,-83.645884 2948.9187,-87.449634 C 2948.7553,-89.937044 2946.3042,-91.825304 2947.0943,-94.612294 C 2948.8286,-96.191894 2951.4068,-96.028484 2953.7395,-96.355304 C 2957.089,-98.879024 2963.5171,-97.780574 2964.2615,-103.25469 C 2964.1881,-104.2896 2963.6979,-105.29728 2962.6906,-105.75119 C 2959.4312,-105.29728 2956.0817,-102.11085 2953.1767,-105.48792 C 2945.5692,-100.64926 2939.5319,-91.416784 2929.519,-92.914674 C 2928.6838,-93.777104 2929.8001,-94.612294 2930.2358,-95.447484 C 2934.7844,-102.52844 2941.3933,-109.01932 2945.6687,-116.32724 C 2952.6589,-122.31882 2954.3205,-130.46192 2961.2018,-136.4989 C 2962.2912,-138.47793 2962.4909,-141.9821 2965.6501,-142.08196 C 2967.6923,-143.61617 2962.4909,-147.21112 2966.8753,-146.56657 L 2969.2632,-144.88711 z M 3187.847,-116.73575 C 3188.001,-115.90056 3187.5747,-115.14708 3186.8215,-114.77487 C 3184.6515,-114.49345 3182.5272,-115.51928 3180.9476,-113.92152 C 3178.052,-110.40828 3177.2343,-105.75119 3177.8973,-101.1304 C 3180.9476,-96.119264 3182.037,-89.864414 3181.5199,-83.727584 C 3182.8083,-76.864504 3180.3935,-70.164824 3179.8306,-63.265424 C 3179.0049,-61.604124 3178.6418,-59.098554 3176.4085,-58.444924 C 3173.8035,-56.947034 3170.1722,-57.219374 3167.1938,-57.627894 C 3165.7145,-58.172584 3166.9128,-59.634164 3167.013,-60.487514 C 3171.9421,-68.376424 3172.9588,-77.854024 3173.7032,-87.449634 C 3174.2661,-90.409104 3174.9829,-93.777104 3174.1571,-96.827364 C 3172.2965,-98.043834 3171.47,-94.675844 3170.072,-94.312714 C 3164.3164,-89.673774 3159.2145,-83.364464 3151.3978,-83.727584 C 3148.3294,-84.036244 3144.7163,-83.527864 3142.1933,-84.680794 C 3147.5763,-88.847664 3151.1894,-94.212854 3156.3364,-97.381134 C 3162.7368,-100.55848 3167.4669,-107.72115 3172.4955,-112.5598 C 3174.5566,-116.16383 3177.2343,-119.62261 3178.3781,-123.68962 C 3178.9047,-124.71545 3180.1124,-124.16168 3180.8568,-123.68962 L 3187.847,-116.73575 z M 3249.805,-122.31882 C 3250.3047,-120.53042 3251.7572,-118.7511 3251.1217,-116.91732 C 3245.2841,-113.74904 3236.7325,-117.38938 3231.104,-113.83982 C 3229.3705,-112.81399 3230.1236,-110.50814 3230.3052,-109.01932 C 3231.876,-105.66948 3235.044,-102.97327 3235.5981,-99.151374 C 3236.7325,-96.119264 3236.3512,-92.642334 3236.4238,-89.492214 C 3237.9221,-82.801614 3236.4238,-78.062814 3237.7224,-71.263284 C 3236.8233,-65.616664 3239.4109,-60.859714 3238.6752,-55.303884 C 3229.2884,-55.494524 3220.2655,-54.051094 3212.6304,-57.346464 C 3211.7952,-58.172584 3210.5242,-58.653724 3210.2424,-59.852044 C 3211.9949,-61.231924 3214.7002,-61.141134 3216.8245,-62.103424 C 3220.2655,-63.637634 3225.0311,-63.555924 3226.8831,-68.122234 C 3229.2884,-73.015364 3227.3275,-79.733194 3228.4358,-85.207324 C 3227.2367,-91.516644 3229.3705,-98.706544 3226.1292,-104.15343 C 3225.0311,-106.03261 3224.241,-108.28399 3222.235,-109.49139 C 3218.3402,-109.65479 3215.5535,-107.05844 3212.1038,-106.20509 C 3208.0005,-105.21557 3203.3525,-105.42437 3200.5564,-101.56616 C 3199.1765,-101.1304 3197.7785,-102.03822 3197.1249,-103.3364 C 3195.9178,-106.11431 3195.4545,-109.19181 3193.9657,-111.79724 C 3194.156,-112.81399 3193.4115,-114.20295 3194.6011,-114.61146 C 3198.1322,-114.49345 3200.9377,-113.74904 3204.3598,-114.61146 C 3218.5856,-118.47876 3231.794,-128.21962 3247.8623,-124.29786 L 3249.805,-122.31882 z M 3236.0702,-143.70695 C 3236.1522,-139.4039 3233.6278,-135.57292 3229.8244,-133.73914 C 3225.6753,-132.59529 3222.0535,-130.00801 3218.2225,-128.04713 C 3213.8555,-128.90956 3208.0913,-123.4899 3205.7673,-129.4724 C 3205.2131,-132.43188 3202.4178,-134.91022 3203.1804,-138.19651 C 3205.8668,-140.13924 3209.3891,-137.4521 3212.358,-138.95908 C 3219.0395,-141.56451 3225.9208,-144.38781 3233.1107,-145.74046 C 3234.3998,-145.45903 3236.1522,-145.45903 3236.0702,-143.70695 z M 3184.2063,-144.23348 C 3185.759,-143.18042 3188.1281,-141.9821 3188.6546,-139.86689 C 3189.8711,-136.70769 3185.8767,-138.29637 3184.7423,-137.09805 C 3179.0862,-133.65743 3177.5887,-125.45078 3170.6348,-123.88934 C 3167.9477,-122.88166 3164.6069,-122.88166 3161.6198,-123.15401 C 3166.9128,-130.00801 3172.4955,-136.89833 3176.4811,-143.77958 C 3177.3251,-145.25024 3176.2901,-147.78304 3178.4326,-148.43667 C 3181.0471,-148.34589 3181.9462,-145.25024 3184.2063,-144.23348 z M 2796.4333,-148.43667 C 2793.9008,-141.18322 2794.7353,-132.05968 2794.6358,-124.42495 C 2795.9431,-122.94521 2798.3666,-123.68962 2800.2374,-123.68962 C 2804.5855,-124.16168 2810.6402,-126.68541 2813.8997,-122.50038 C 2814.6441,-120.71198 2815.1887,-118.6694 2815.0072,-116.73575 C 2812.6737,-115.90056 2809.996,-115.98227 2807.7534,-115.60098 C 2803.2782,-114.08493 2797.2503,-114.61146 2795.0258,-109.65479 C 2794.3998,-107.72115 2794.3998,-105.56962 2794.9445,-103.6269 C 2802.3428,-103.6269 2807.672,-101.4663 2813.1458,-100.45862 C 2815.2701,-98.425114 2816.496,-95.338544 2816.496,-92.433534 C 2809.0701,-92.433534 2802.5701,-91.616504 2796.0702,-91.916084 C 2793.2465,-90.799464 2793.2465,-87.613034 2792.2305,-85.407044 C 2791.9668,-82.610974 2790.1062,-78.062814 2793.3554,-76.310734 C 2798.0673,-74.985324 2803.1242,-77.136844 2808.1078,-76.020234 C 2815.1161,-74.640354 2824.3846,-75.729734 2827.5619,-68.122234 C 2827.644,-65.716524 2826.9722,-63.555924 2825.6918,-61.758454 C 2823.0047,-61.758454 2820.672,-63.465144 2817.8664,-63.637634 C 2809.5145,-64.291254 2793.0199,-66.206744 2791.8848,-66.061494 C 2790.6959,-65.907164 2781.0912,-64.581754 2776.8877,-60.941414 C 2774.0916,-59.098554 2770.1066,-60.042684 2767.3287,-58.345064 C 2762.762,-57.818534 2757.8235,-56.865324 2753.3665,-58.081804 C 2750.3075,-57.909314 2747.9015,-55.639774 2745.1236,-55.385584 C 2743.8976,-58.889754 2743.5076,-62.720734 2742.7995,-66.415544 C 2742.3093,-67.922524 2743.3261,-68.948354 2744.1881,-70.055884 C 2746.2943,-70.891074 2747.8012,-68.294724 2749.8536,-68.122234 C 2755.6992,-67.341514 2761.2013,-70.228374 2767.3287,-70.419014 L 2780.7913,-74.640354 C 2783.6876,-77.309334 2784.0776,-81.766704 2783.2424,-85.652154 C 2778.667,-85.742934 2775.1991,-85.488744 2771.9128,-85.207324 C 2769.6527,-84.471994 2767.6918,-82.965024 2765.3678,-82.610974 C 2762.5079,-85.860954 2762.6894,-90.708684 2762.5899,-94.675844 C 2765.3678,-95.447484 2767.9911,-93.867884 2771.042,-94.412574 C 2775.3988,-95.256844 2779.484,-96.536864 2783.461,-98.325264 C 2786.2926,-100.64926 2785.1851,-104.916 2784.4138,-107.81193 C 2782.2801,-108.62896 2779.7839,-107.99349 2777.6415,-107.81193 C 2773.9289,-107.4488 2770.3877,-105.56962 2766.5749,-106.20509 C 2764.1782,-108.5291 2763.9967,-111.70646 2762.0358,-114.20295 C 2759.6944,-114.01231 2759.4213,-111.29794 2757.6601,-110.32658 C 2752.7405,-105.66948 2745.4954,-105.48792 2739.2591,-104.15343 C 2738.7957,-107.91179 2741.9368,-109.65479 2742.8903,-112.45994 C 2745.3865,-114.96551 2748.4367,-117.19874 2750.1253,-120.1673 C 2755.1553,-125.35092 2759.6944,-131.01569 2761.5732,-137.60643 C 2761.9181,-138.66857 2761.2914,-140.23002 2762.6894,-140.60222 C 2766.0215,-140.41158 2767.6918,-136.13577 2770.6782,-134.86483 C 2771.8133,-134.2112 2773.093,-133.9207 2773.8287,-132.59529 C 2769.6527,-127.97451 2762.762,-124.9878 2763.9967,-118.57862 C 2767.3287,-116.54511 2771.9128,-116.32724 2775.6988,-116.44525 C 2778.168,-118.21549 2781.5538,-118.02485 2784.323,-119.41381 C 2785.9934,-120.63028 2785.9113,-122.58208 2786.2926,-124.42495 C 2785.1851,-131.89627 2788.1627,-140.91088 2783.2424,-147.02955 C 2784.2504,-148.97228 2786.8555,-148.8815 2788.8803,-149.52605 C 2791.4861,-148.05539 2795.0258,-151.8319 2796.4333,-148.43667 z M 3142.5107,5.4289659 L 3156.8636,5.4289659 L 3182.6812,40.316316 L 3182.8083,5.4289659 L 3191.9954,5.4289659 L 3191.9954,50.901446 L 3178.2605,50.901446 L 3151.843,15.369546 L 3151.7254,50.901446 L 3142.5107,50.901446 L 3142.5107,5.4289659 z M 3115.2849,33.289826 L 3105.7986,13.463136 L 3096.3392,33.289826 L 3115.2849,33.289826 z M 3100.1252,5.4289659 L 3113.0154,5.4289659 L 3136.2286,50.901446 L 3124.1634,50.901446 L 3118.8806,40.715756 L 3092.7079,40.715756 L 3087.9147,50.901446 L 3076.9301,50.901446 L 3100.1252,5.4289659 z M 3037.5578,23.948406 L 3052.101,23.948406 C 3057.094,23.948406 3060.0535,22.423276 3060.0535,18.392576 C 3060.0535,13.463136 3055.4693,12.491776 3050.1677,12.491776 L 3037.5578,12.491776 L 3037.5578,23.948406 z M 3037.5578,43.847726 L 3051.6928,43.847726 C 3057.9299,43.847726 3062.4051,42.150106 3062.4051,37.502096 C 3062.4051,32.273076 3056.9037,31.020286 3052.3733,31.020286 L 3037.5578,31.020286 L 3037.5578,43.847726 z M 3027.3358,5.4289659 L 3054.1352,5.4289659 C 3063.0856,5.4289659 3071.0017,7.6349659 3071.0017,17.049006 C 3071.0017,22.731936 3065.7277,26.345036 3059.8269,26.717246 C 3065.7277,27.643216 3073.3715,30.048926 3073.3715,38.691326 C 3073.3715,43.675236 3069.831,50.901446 3055.1425,50.901446 L 3027.3358,50.901446 L 3027.3358,5.4289659 z M 2981.9908,20.081116 C 2981.709,13.717326 2975.1553,11.266226 2970.0984,11.266226 C 2960.5118,11.266226 2951.624,16.095806 2951.624,27.970026 C 2951.624,36.412716 2956.1631,44.701066 2970.171,44.701066 C 2974.1472,44.701066 2977.6057,44.165456 2982.6444,42.613096 L 2982.6444,33.907146 L 2968.083,33.907146 L 2968.083,26.844336 L 2992.5846,26.844336 L 2992.5846,48.096296 C 2986.0846,50.874216 2976.135,52.099766 2969.5079,52.099766 C 2952.5863,52.099766 2941.0207,44.546736 2941.0207,28.051736 C 2941.0207,14.434496 2950.6798,4.2124959 2968.5733,4.2124959 C 2982.3357,4.2124959 2992.5846,9.4142759 2992.5846,20.081116 L 2981.9908,20.081116 z M 2882.1216,5.4289659 L 2896.4927,5.4289659 L 2922.2747,40.316316 L 2922.4199,5.4289659 L 2931.5976,5.4289659 L 2931.5976,50.901446 L 2917.8808,50.901446 L 2891.4452,15.369546 L 2891.3276,50.901446 L 2882.1216,50.901446 L 2882.1216,5.4289659 z M 2871.3099,12.845826 L 2845.4553,12.845826 L 2845.4553,23.576206 L 2870.3745,23.576206 L 2870.3745,31.020286 L 2845.4553,31.020286 L 2845.4553,43.493676 L 2872.4356,43.493676 L 2872.4356,50.901446 L 2835.242,50.901446 L 2835.242,5.4289659 L 2871.3099,5.4289659 L 2871.3099,12.845826 z M 2791.9029,36.657826 C 2792.4752,42.104716 2796.4609,45.391006 2804.5034,45.391006 C 2812.965,45.391006 2816.0508,41.696196 2816.0508,38.464376 C 2816.0508,35.169006 2813.7181,33.662036 2808.6612,32.953936 L 2799.2657,31.728386 C 2787.2462,30.048926 2783.2787,24.928846 2783.2787,18.973576 C 2783.2787,8.4066059 2793.0744,4.2124959 2803.6682,4.2124959 C 2816.9949,4.2124959 2824.1848,9.8409559 2824.4848,19.018966 L 2814.2715,19.018966 C 2813.8997,13.090936 2809.8232,10.930336 2802.7517,10.930336 C 2798.5394,10.930336 2793.8551,13.009226 2793.8551,17.203336 C 2793.8551,20.716586 2796.4609,22.187246 2800.4821,22.731936 L 2813.5365,24.565716 C 2824.3846,26.090846 2826.6359,32.436476 2826.6359,37.175276 C 2826.6359,46.580246 2818.5571,52.099766 2803.1242,52.099766 C 2789.9696,52.099766 2781.6904,46.462226 2781.6904,36.657826 L 2791.9029,36.657826 z M 2739.3041,20.081116 C 2738.9954,13.717326 2732.4504,11.266226 2727.3936,11.266226 C 2717.8252,11.266226 2708.9199,16.095806 2708.9199,27.970026 C 2708.9199,36.412716 2713.4589,44.701066 2727.4756,44.701066 C 2731.4155,44.701066 2734.9103,44.165456 2739.9672,42.613096 L 2739.9672,33.907146 L 2725.3964,33.907146 L 2725.3964,26.844336 L 2749.9074,26.844336 L 2749.9074,48.096296 C 2743.4169,50.874216 2733.4578,52.099766 2726.822,52.099766 C 2709.8546,52.099766 2698.3347,44.546736 2698.3347,28.051736 C 2698.3347,14.434496 2707.9757,4.2124959 2725.8866,4.2124959 C 2739.6309,4.2124959 2749.9074,9.4142759 2749.9074,20.081116 L 2739.3041,20.081116 z M 2639.427,5.4289659 L 2653.7886,5.4289659 L 2679.5793,40.316316 L 2679.6969,5.4289659 L 2688.9029,5.4289659 L 2688.9029,50.901446 L 2675.1491,50.901446 L 2648.768,15.369546 L 2648.6504,50.901446 L 2639.427,50.901446 L 2639.427,5.4289659 z M 2612.5004,33.289826 L 2603.0141,13.463136 L 2593.5823,33.289826 L 2612.5004,33.289826 z M 2597.3406,5.4289659 L 2610.204,5.4289659 L 2633.4804,50.901446 L 2621.352,50.901446 L 2616.123,40.715756 L 2589.9234,40.715756 L 2585.1207,50.901446 L 2574.1456,50.901446 L 2597.3406,5.4289659 z M 2522.8903,5.4289659 L 2533.0847,5.4289659 L 2533.0847,23.948406 L 2557.8318,23.948406 L 2557.8318,5.4289659 L 2568.0538,5.4289659 L 2568.0538,50.901446 L 2557.8318,50.901446 L 2557.8318,31.383416 L 2533.0847,31.383416 L 2533.0847,50.901446 L 2522.8903,50.901446 L 2522.8903,5.4289659 z M 3214.3007,5.4289659 L 3214.3007,25.246586 L 3233.5283,5.4289659 L 3246.0467,5.4289659 L 3226.0297,25.891136 L 3248.4709,50.901446 L 3234.9713,50.901446 L 3214.3007,26.971436 L 3214.3007,50.901446 L 3204.07,50.901446 L 3204.07,5.4289659 L 3214.3007,5.4289659 z M 2523.7342,-27.134374 L 3246.2282,-27.134374 L 3246.2282,-21.364294 L 2523.7342,-21.364294 L 2523.7342,-27.134374 z"
         id="path8335"
         style="fill:#000000;fill-opacity:1;fill-rule:evenodd;stroke:none" />
      <path
         d="M 2314.347,-108.48371 L 2306.1221,-108.48371 C 2304.6057,-108.48371 2303.3893,-109.71834 2303.3893,-111.22531 C 2303.3893,-112.79583 2304.6057,-114.01231 2306.1221,-114.01231 L 2314.3375,-114.01231 L 2314.347,-138.91368 L 2294.7018,-138.91368 L 2299.4857,-104.01726 L 2271.9788,-104.01726 C 2271.9788,-104.01726 2282.3287,-36.484874 2254.4493,19.863236 C 2271.0805,19.926786 2291.125,19.863236 2291.125,19.863236 C 2310.3439,-32.018414 2308.2014,-38.191564 2308.2014,-38.191564 L 2314.3375,-38.191564 L 2314.347,-61.386244 L 2308.1375,-61.386244 C 2306.5579,-61.386244 2305.3233,-62.648114 2305.3233,-64.127854 C 2305.3233,-65.707454 2306.5579,-66.960234 2308.1375,-66.960234 L 2314.3375,-66.960234 L 2314.347,-108.48371 z M 2297.1529,-33.080564 L 2299.1414,-23.539424 C 2299.5038,-22.177694 2298.7049,-20.688884 2297.2524,-20.362064 C 2295.9001,-19.962624 2294.484,-20.779664 2294.1027,-22.195854 L 2291.8418,-30.438814 L 2289.4002,-30.438814 L 2287.1575,-22.195854 C 2286.7675,-20.779664 2285.3876,-19.962624 2283.999,-20.362064 C 2282.5458,-20.688884 2281.7477,-22.177694 2282.1101,-23.539424 L 2284.5706,-32.608494 C 2282.2284,-34.841724 2281.2756,-37.202044 2281.2843,-39.707614 L 2281.2843,-77.309334 C 2281.2843,-82.420334 2285.5329,-86.632594 2290.7256,-86.614444 C 2295.8188,-86.587204 2299.949,-82.384024 2299.949,-77.245784 L 2299.949,-39.653144 C 2299.949,-37.156654 2298.978,-34.841724 2297.1529,-33.080564 z M 2286.5039,-61.576884 L 2286.5039,-39.707614 C 2286.5039,-38.581924 2286.9033,-37.519774 2287.6572,-36.757214 C 2288.4648,-35.994644 2289.491,-35.567974 2290.5172,-35.567974 C 2291.6421,-35.540744 2292.6865,-36.021884 2293.5493,-36.820764 C 2294.2937,-37.583324 2294.7381,-38.600084 2294.7381,-39.653144 L 2294.7381,-61.576884 L 2286.5039,-61.576884 z M 2294.7381,-66.796824 L 2294.7381,-77.273014 C 2294.7381,-79.578874 2292.932,-81.412654 2290.7074,-81.412654 C 2288.3929,-81.412654 2286.5133,-79.578874 2286.5039,-77.309334 L 2286.5039,-66.796824 L 2294.7381,-66.796824 z M 2316.9615,60.497056 C 2378.9289,60.497056 2429.2038,10.213156 2429.2038,-51.754324 C 2429.2038,-113.75812 2378.9289,-164.01478 2316.9615,-164.01478 C 2254.9119,-164.01478 2204.6828,-113.75812 2204.6828,-51.754324 C 2204.6828,10.213156 2254.9119,60.497056 2316.9615,60.497056 z M 2209.8298,-51.781564 C 2209.8298,-110.93481 2257.7537,-158.87655 2316.952,-158.87655 C 2376.069,-158.87655 2424.0292,-110.93481 2424.0292,-51.781564 C 2424.0292,7.3716959 2376.069,55.340666 2316.952,55.340666 C 2257.7537,55.340666 2209.8298,7.3716959 2209.8298,-51.781564 z M 2319.9028,-108.48371 L 2327.9097,-108.48371 C 2329.453,-108.48371 2330.66,-109.71834 2330.66,-111.22531 C 2330.66,-112.79583 2329.453,-114.01231 2327.9097,-114.01231 L 2319.9028,-114.01231 L 2319.9028,-138.91368 L 2339.3758,-138.91368 L 2334.6181,-104.01726 L 2362.207,-104.01726 C 2362.207,-104.01726 2351.7395,-36.484874 2379.6552,19.863236 C 2362.9971,19.926786 2342.925,19.863236 2342.925,19.863236 C 2323.6248,-32.018414 2325.8123,-38.191564 2325.8123,-38.191564 L 2319.9028,-38.191564 L 2319.9028,-61.386244 L 2325.9576,-61.386244 C 2327.5103,-61.386244 2328.7449,-62.648114 2328.7449,-64.127854 C 2328.7449,-65.707454 2327.5103,-66.960234 2325.9576,-66.960234 L 2320.2478,-66.960234 L 2319.9028,-108.48371 z M 2354.89,-64.218634 L 2343.6244,-86.142374 L 2332.4219,-64.218634 L 2341.0818,-47.342344 L 2341.0818,-22.903954 C 2341.0818,-21.442364 2342.2445,-20.298524 2343.6418,-20.298524 C 2345.0943,-20.298524 2346.2839,-21.442364 2346.2839,-22.903954 L 2346.2839,-47.396814 L 2354.89,-64.218634 z M 2343.6244,-53.497334 L 2338.1317,-64.218634 L 2343.6244,-74.939934 L 2349.1432,-64.218634 L 2343.6244,-53.497334"
         id="path8349"
         style="fill:#ffffff;fill-opacity:1;fill-rule:evenodd;stroke:none" />
    </g>
  </g>
</svg>
