<svg id="HSBC_MASTERBRAND_TC_EN_LOGO" xmlns="http://www.w3.org/2000/svg" viewBox="0 0 113.63 30.93">
<style type="text/css">
	.st0{fill:#db0011;}
</style>
<polygon class="st0" points="0.09,15.37 15.36,30.64 15.36,0.1 "/>
<polygon class="st0" points="15.36,0.1 30.63,15.37 45.9,0.1 "/>
<polygon class="st0" points="15.36,30.64 45.9,30.64 30.63,15.37 "/>
<polygon class="st0" points="45.89,30.64 61.16,15.37 45.89,0.1 "/>
<path d="M77.34,0.09l-0.89,1c0.72,0.55,1.4,1.19,2.08,1.98l1-1.06C78.9,1.32,78.17,0.68,77.34,0.09"/>
<path d="M78.14,6.66l1.06-1c-0.51-0.64-1.22-1.33-2.15-2.09L76.1,4.58C76.83,5.2,77.5,5.88,78.14,6.66"/>
<path d="M77.54,13.1c0.82-1.66,1.42-3.27,1.84-4.9l-1.33-0.58c-0.33,1.59-0.95,3.15-1.84,4.63L77.54,13.1z"/>
<polygon points="81.21,1.67 89.28,1.67 89.28,0.48 79.77,0.48 79.77,12.77 89.28,12.77 89.28,11.57 81.21,11.57 "/>
<path d="M85.35,5.48h-1.54V4.64h1.54V5.48z M85.35,7.53h-1.54V6.62h1.54V7.53z M85.35,9.59h-1.54V8.68h1.54V9.59z M85.7,3.44h-1.8
	l0.04-0.08c0.14-0.26,0.27-0.56,0.43-0.98l-1.21-0.47c-0.47,1.28-1.05,2.37-1.73,3.25l0.53,1.42c0.17-0.18,0.3-0.34,0.4-0.5
	l0.1-0.16v5.21h1.36v-0.35h5.01V9.59h-2.11V8.68h1.66V7.53h-1.66V6.62h1.66V5.48h-1.66V4.64h2.11v-1.2h-2.37l0.59-0.47
	c-0.26-0.36-0.63-0.71-1.12-1.06l-0.94,0.79L85.7,3.44z"/>
<polygon points="100.62,4.47 101.58,4.47 101.58,3.6 100.62,3.6 100.62,2.98 101.41,2.98 101.41,2.13 100.62,2.13 100.62,1.57 
	101.58,1.57 101.58,0.7 100.62,0.7 100.62,0.13 99.42,0.13 99.42,0.7 98.44,0.7 98.44,1.57 99.42,1.57 99.42,2.13 98.62,2.13 
	98.62,2.98 99.42,2.98 99.42,3.6 98.44,3.6 98.44,4.47 99.42,4.47 99.42,5.09 98,5.09 98,0.08 96.79,0.08 96.79,5.09 95.38,5.09 
	95.38,4.47 96.35,4.47 96.35,3.6 95.38,3.6 95.38,2.98 96.18,2.98 96.18,2.13 95.38,2.13 95.38,1.57 96.35,1.57 96.35,0.7 
	95.38,0.7 95.38,0.13 94.17,0.13 94.17,0.7 93.21,0.7 93.21,1.57 94.17,1.57 94.17,2.13 93.39,2.13 93.39,2.98 94.17,2.98 
	94.17,3.6 93.21,3.6 93.21,4.47 94.17,4.47 94.17,5.09 92.77,5.09 92.77,0.53 91.51,0.53 91.51,6.06 103.28,6.06 103.28,0.53 
	102.02,0.53 102.02,5.09 100.62,5.09 "/>
<rect x="91" y="6.67" width="12.8" height="0.99"/>
<path d="M99.47,10.91c-0.17,0.32-0.36,0.62-0.57,0.87l-0.01,0.02h-2.85l-0.01-0.03c-0.14-0.24-0.31-0.53-0.51-0.86l-0.05-0.08h4.06
	L99.47,10.91z M93.79,9.19H101v0.73h-7.22V9.19z M100.51,11.72c0.2-0.27,0.36-0.58,0.51-0.85l0.01-0.03h1.41V8.28H92.35v2.56h1.4
	l0.64,0.97h-3.51v0.97h12.97V11.8h-3.4L100.51,11.72z"/>
<polygon points="74.57,17.76 74.57,22.99 69.03,22.99 69.03,17.76 66.25,17.76 66.25,30.54 69.03,30.54 69.03,25.08 74.57,25.08 
	74.57,30.54 77.34,30.54 77.34,17.76 "/>
<path d="M83.99,30.84c-2.76,0-5.02-1.1-5.08-4.16h2.78c0.04,1.36,0.83,2.18,2.35,2.18c1.13,0,2.41-0.57,2.41-1.84
	c0-0.99-0.87-1.31-2.3-1.72l-0.92-0.27c-2.02-0.58-4.01-1.36-4.01-3.66c0-2.85,2.65-3.8,5.08-3.8c2.49,0,4.63,0.87,4.65,3.7h-2.78
	c-0.11-1.17-0.78-1.84-2.09-1.84c-1.03,0-2.05,0.55-2.05,1.68c0,0.94,0.85,1.22,2.65,1.79l1.06,0.34c2.19,0.69,3.57,1.45,3.57,3.57
	C89.32,29.73,86.5,30.84,83.99,30.84"/>
<path d="M95.6,28.7c1.29,0,2.56-0.3,2.56-1.86c0-1.52-1.1-1.88-2.4-1.88h-2.19v3.73H95.6z M95.34,23.15c1.22,0,2.46-0.25,2.46-1.73
	c0-1.33-1.17-1.68-2.28-1.68h-1.94v3.41H95.34z M90.88,17.83h4.44c1.4,0,1.96,0.04,2.51,0.16c1.56,0.35,2.72,1.36,2.72,3.08
	c0,1.64-1.04,2.49-2.55,2.88c1.73,0.32,3.01,1.2,3.01,3.09c0,2.9-2.86,3.57-5.11,3.57h-5.02V17.83z"/>
<path d="M108.25,30.84c-4.12,0-5.98-2.64-5.98-6.53c0-3.86,2.05-6.74,6.12-6.74c2.55,0,5.02,1.13,5.09,4.03h-2.87
	c-0.14-1.27-0.99-1.95-2.23-1.95c-2.49,0-3.26,2.69-3.26,4.74c0,2.03,0.76,4.4,3.17,4.4c1.26,0,2.18-0.67,2.37-1.96h2.88
	C113.24,29.75,110.9,30.84,108.25,30.84"/>
</svg>
