<?xml version="1.0" encoding="UTF-8" standalone="no"?>
<!-- Created with Inkscape (http://www.inkscape.org/) -->

<svg
   width="33.530327mm"
   height="13.228411mm"
   viewBox="0 0 33.530328 13.228411"
   version="1.1"
   id="svg1"
   xml:space="preserve"
   inkscape:version="1.4.2 (f4327f4, 2025-05-13)"
   sodipodi:docname="20251123_Jaxfr-logo-snall.svg"
   inkscape:export-filename="20251123_Jaxfr-logo.svg"
   inkscape:export-xdpi="96"
   inkscape:export-ydpi="96"
   xmlns:inkscape="http://www.inkscape.org/namespaces/inkscape"
   xmlns:sodipodi="http://sodipodi.sourceforge.net/DTD/sodipodi-0.dtd"
   xmlns="http://www.w3.org/2000/svg"
   xmlns:svg="http://www.w3.org/2000/svg"><sodipodi:namedview
     id="namedview1"
     pagecolor="#ffffff"
     bordercolor="#000000"
     borderopacity="0.25"
     inkscape:showpageshadow="2"
     inkscape:pageopacity="0.0"
     inkscape:pagecheckerboard="0"
     inkscape:deskcolor="#d1d1d1"
     inkscape:document-units="mm"
     inkscape:zoom="5.7513469"
     inkscape:cx="94.586539"
     inkscape:cy="62.507097"
     inkscape:window-width="1920"
     inkscape:window-height="1009"
     inkscape:window-x="1912"
     inkscape:window-y="-5"
     inkscape:window-maximized="1"
     inkscape:current-layer="layer1"><inkscape:page
       x="0"
       y="0"
       width="33.530327"
       height="13.228411"
       id="page26"
       margin="0"
       bleed="0" /></sodipodi:namedview><defs
     id="defs1"><linearGradient
       id="swatch17"
       inkscape:swatch="solid"><stop
         style="stop-color:#000000;stop-opacity:1;"
         offset="0"
         id="stop17" /></linearGradient></defs><g
     inkscape:label="圖層 1"
     inkscape:groupmode="layer"
     id="layer1"
     transform="translate(-134.85113,-94.925824)"><path
       style="font-size:64.8717px;font-family:'Liberation Mono';-inkscape-font-specification:'Liberation Mono';fill:#bababa;stroke-width:0.742633"
       d="m 140.1704,103.51735 q 0,0.94137 -0.44139,1.46386 -0.44139,0.51799 -1.2401,0.51799 -0.71884,0 -1.14762,-0.40088 -0.42878,-0.40087 -0.57591,-1.26568 l 0.7861,-0.13963 q 0.0757,0.53149 0.31948,0.81976 0.24802,0.28827 0.62215,0.28827 0.87859,0 0.87859,-1.26568 v -3.49977 h -1.30737 v -0.702652 h 2.10607 z"
       id="text22"
       aria-label="J" /><path
       d="m 146.96143,103.91706 c 0,1.11002 0.7969,1.86343 1.93131,1.86343 1.22348,0 1.96882,-0.80866 1.96882,-2.1899 v -5.228655 h -0.84378 v 5.223625 c 0,0.88903 -0.40782,1.36116 -1.12972,1.36116 -0.63753,0 -1.06879,-0.42191 -1.08754,-1.02966 z"
       id="text5"
       style="font-size:72.3396px;font-family:'SF Pro Text';-inkscape-font-specification:'SF Pro Text';letter-spacing:-3.175px;fill:#454545;stroke-width:0.828123"
       aria-label="J" /><path
       d="m 153.61844,104.94672 c -0.58596,0 -1.02192,-0.32145 -1.02192,-0.87395 0,-0.54246 0.33752,-0.82875 1.10629,-0.884 l 1.35943,-0.0954 v 0.49725 c 0,0.77349 -0.61409,1.35613 -1.4438,1.35613 z m -0.15001,0.75843 c 0.67502,0 1.22817,-0.31643 1.5563,-0.89404 h 0.075 v 0.79861 h 0.76877 v -3.70677 c 0,-1.12509 -0.68908,-1.80315 -1.92194,-1.80315 -1.07816,0 -1.87506,0.57259 -1.98288,1.44152 h 0.81565 c 0.11251,-0.42693 0.5344,-0.67305 1.13911,-0.67305 0.75471,0 1.14379,0.36666 1.14379,1.03468 v 0.49223 l -1.45787,0.0954 c -1.1766,0.0753 -1.84225,0.63286 -1.84225,1.60225 0,0.98947 0.72659,1.61229 1.70631,1.61229 z"
       id="text4"
       style="font-size:72.3396px;font-family:'SF Pro Text';-inkscape-font-specification:'SF Pro Text';letter-spacing:-3.175px;fill:#454545;stroke-width:0.828123"
       aria-label="a" /><path
       d="m 158.72852,103.56547 1.19535,2.04425 h 0.95629 l -1.73913,-2.7424 1.71569,-2.67209 h -0.9141 l -1.18598,2.01411 h -0.075 l -1.20004,-2.01411 h -0.96097 l 1.7485,2.70724 -1.72975,2.70725 h 0.91409 l 1.20005,-2.04425 z"
       id="text3"
       style="font-size:72.3396px;font-family:'SF Pro Text';-inkscape-font-specification:'SF Pro Text';letter-spacing:-3.175px;fill:#454545;stroke-width:0.828123"
       aria-label="x" /><path
       d="m 162.08541,105.60972 h 0.80628 v -4.69122 h 1.15786 v -0.72327 h -1.15786 v -0.577615 c 0,-0.592681 0.24376,-0.894044 0.82503,-0.894044 0.14532,0 0.28126,0.005 0.3797,0.02511 V 98.0455 c -0.16876,-0.03516 -0.34689,-0.05023 -0.54377,-0.05023 -0.96097,0 -1.46724,0.51734 -1.46724,1.597225 v 0.602725 h -0.83909 v 0.72327 h 0.83909 z"
       id="text2"
       style="font-size:72.3396px;font-family:'SF Pro Text';-inkscape-font-specification:'SF Pro Text';letter-spacing:-3.175px;fill:#454545;stroke-width:0.828123"
       aria-label="f" /><path
       d="m 164.8001,105.60972 h 0.80628 v -3.35518 c 0,-0.76345 0.55783,-1.31595 1.32661,-1.31595 0.15938,0 0.45001,0.0301 0.51564,0.0502 v -0.86391 c -0.10313,-0.0151 -0.27188,-0.0251 -0.40314,-0.0251 -0.67034,0 -1.25161,0.37168 -1.40161,0.89906 h -0.075 v -0.80363 h -0.76878 z"
       id="text1"
       style="font-size:72.3396px;font-family:'SF Pro Text';-inkscape-font-specification:'SF Pro Text';letter-spacing:-3.175px;fill:#454545;stroke-width:0.828123"
       aria-label="r" /><path
       style="fill:#bababa;fill-opacity:1;stroke-width:0.0363466"
       d="m 140.93774,99.331745 v 7.292885 l 0.78649,-0.30387 v -6.18465 h 2.84208 v -0.804365 z"
       id="path26" /><path
       id="path24"
       style="fill:#464646;fill-opacity:1;stroke-width:0.0363466"
       d="m 140.54449,95.506525 -4.80826,1.376415 v 8.81221 l 4.82615,1.9126 0.39321,-0.17876 v -5.27302 h 3.02088 v -0.78649 h -3.0387 v -2.484637 l 3.66426,-1.179703 v 1.608764 h 0.75079 V 96.86505 Z m 0,0.786492 3.16386,0.911647 h -0.0179 l -3.12808,1.018842 -3.11019,-1.018842 h 0.0179 z m -4.03966,1.394234 3.66434,1.233371 v 7.721878 l -3.66434,-1.46572 z" /><path
       style="fill:#464646;fill-opacity:1;stroke-width:0.0363466"
       d="m 144.58419,100.13611 h 0.76861 v 5.55904 l -3.64644,1.46572 v -0.85798 l 2.85995,-1.12611 z"
       id="path25" /></g></svg>
