<?xml version="1.0" encoding="UTF-8" standalone="no"?>
<svg
   xmlns:dc="http://purl.org/dc/elements/1.1/"
   xmlns:cc="http://creativecommons.org/ns#"
   xmlns:rdf="http://www.w3.org/1999/02/22-rdf-syntax-ns#"
   xmlns:svg="http://www.w3.org/2000/svg"
   xmlns="http://www.w3.org/2000/svg"
   viewBox="0 0 1445.3333 206.52"
   height="206.52"
   width="1445.3333"
   xml:space="preserve"
   id="svg2"
   version="1.1"><metadata
     id="metadata8"><rdf:RDF><cc:Work
         rdf:about=""><dc:format>image/svg+xml</dc:format><dc:type
           rdf:resource="http://purl.org/dc/dcmitype/StillImage" /></cc:Work></rdf:RDF></metadata><defs
     id="defs6" /><g
     transform="matrix(1.3333333,0,0,-1.3333333,0,206.52)"
     id="g10"><g
       transform="scale(0.1)"
       id="g12"><path
         id="path14"
         style="fill:#201d1c;fill-opacity:1;fill-rule:nonzero;stroke:none"
         d="m 1833.83,1357.3 c -13.55,-8.68 -27.88,-22.19 -43.01,-40.58 -20.59,-24.92 -41.41,-54.41 -62.53,-88.49 -21.1,-34.12 -39.76,-69 -56.01,-104.72 L 1276.12,266.238 970.895,967.645 625.082,266.238 237.031,1126.74 c -15.16,34.63 -33.554,69.81 -55.207,105.55 -21.656,35.72 -41.679,64.38 -60.074,86.03 -15.156,18.4 -31.4102,32.22 -48.7109,41.41 -17.3203,9.18 -41.6758,18.13 -73.0391,26.79 v 16.23 h 595.836 v -16.23 c -23.82,-9.73 -40.852,-20.85 -51.145,-33.28 -10.289,-12.46 -15.425,-28.98 -15.425,-49.51 0,-17.33 4.89,-37.35 14.625,-60.08 L 797.172,662.391 962.77,995.234 866.977,1219.3 c -28.149,64.93 -54.668,109.85 -79.559,134.77 -8.664,8.63 -18.664,15.4 -30.027,20.26 -11.36,4.89 -27.348,8.96 -47.907,12.19 v 16.23 h 587.756 v -16.23 c -58.44,-9.73 -87.68,-41.14 -87.68,-94.16 0,-12.99 2.96,-30.85 8.92,-53.6 5.94,-22.72 13.82,-46.01 23.56,-69.8 l 202.94,-482.214 40.58,82.82 c 41.15,85.477 72.8,164.5 94.99,237.034 22.17,72.51 33.29,136.4 33.29,191.58 0,62.77 -13.56,110.95 -40.59,144.5 -9.76,11.9 -20.58,20.83 -32.48,26.79 -11.92,5.93 -29.78,11.63 -53.58,17.05 v 16.23 h 407.52 v -16.23 c -27.06,-10.82 -47.35,-20.58 -60.88,-29.22" /><path
         id="path16"
         style="fill:#201d1c;fill-opacity:1;fill-rule:nonzero;stroke:none"
         d="m 2455.74,570.668 c -7.59,-17.859 -15.16,-33.848 -22.72,-47.906 -7.59,-14.063 -15.99,-27.594 -25.19,-40.582 -9.19,-12.989 -19.75,-27.059 -31.65,-42.219 -37.91,-45.449 -83.36,-80.359 -136.37,-104.723 -53.04,-24.347 -111.51,-36.519 -175.36,-36.519 -60.63,0 -117.17,10.562 -169.65,31.66 -52.51,21.121 -97.98,50.34 -136.4,87.691 -38.42,37.321 -68.44,81.41 -90.1,132.305 -21.68,50.852 -32.48,106.059 -32.48,165.621 0,60.582 11.39,117.422 34.11,170.461 22.73,53.016 54.11,99.293 94.16,138.813 40.05,39.51 86.86,70.63 140.44,93.35 53.57,22.75 111.21,34.09 172.92,34.09 54.11,0 103.91,-8.1 149.36,-24.33 45.45,-16.25 85.5,-39.54 120.15,-69.81 34.62,-30.34 63.04,-67.125 85.23,-110.41 22.19,-43.308 36.54,-91.484 43.04,-144.5 h -537.42 c 1.07,-202.433 91.46,-303.621 271.14,-303.621 68.2,0 126.09,16.762 173.73,50.336 18.39,11.898 32.99,24.066 43.84,36.547 10.8,12.406 24.36,31.094 40.58,55.984 l 14.63,-6.472 c -9.76,-25.985 -18.42,-47.907 -25.99,-65.766 m -267.9,300.07 c 0,13.117 -0.27,24.844 -0.81,35.258 -0.56,10.391 -1.09,19.977 -1.63,28.711 -0.53,8.734 -1.36,18.563 -2.43,29.535 -4.33,59.048 -15.16,101.998 -32.46,128.808 -17.32,26.76 -42.21,40.2 -74.69,40.2 -45.45,0 -79.83,-26.55 -103.09,-79.59 -23.29,-53.07 -34.92,-129.93 -34.92,-230.512 h 250.03 v 47.59" /><path
         id="path18"
         style="fill:#201d1c;fill-opacity:1;fill-rule:nonzero;stroke:none"
         d="m 3370.17,327.129 c -41.09,-20 -82.14,-30.02 -123.18,-30.02 -87.52,0 -141.54,51.942 -162.02,155.86 -19.47,-27.078 -35.67,-47.098 -48.64,-60.098 -12.97,-12.961 -29.17,-25.961 -48.61,-38.953 -54.02,-36.789 -118.83,-55.207 -194.43,-55.207 -68.05,0 -123.7,16.258 -166.91,48.711 -43.21,32.488 -64.79,75.207 -64.79,128.277 0,68.199 37.86,123.914 113.65,167.223 98.46,55.207 234.86,108.223 409.14,159.121 v 84.43 c 0,80.074 -3.82,133.647 -11.38,160.727 -5.43,19.46 -15.7,34.89 -30.83,46.25 -15.18,11.39 -33.04,17.06 -53.58,17.06 -15.18,0 -30.04,-2.7 -44.67,-8.1 -14.6,-5.45 -27.34,-12.46 -38.15,-21.12 -14.06,-11.92 -24.62,-27.59 -31.65,-47.08 -7.06,-19.49 -13.26,-46.569 -18.66,-81.194 l -6.5,-48.707 c -6.5,-51.95 -25.16,-92.825 -56.01,-122.582 -30.85,-29.778 -69,-44.645 -114.48,-44.645 -33.55,0 -60.87,10.559 -81.99,31.652 -21.1,21.121 -31.65,48.446 -31.65,82.02 0,78.976 62.74,147.18 188.34,204.546 67.1,31.39 136.64,55.48 208.64,72.27 71.97,16.76 138.12,25.15 198.44,25.15 62.41,0 111.41,-14.59 146.91,-43.84 23.67,-19.47 40.09,-42.48 49.24,-69 9.13,-26.52 13.72,-63.603 13.72,-111.192 V 555.234 c 0,-31.382 0.54,-53.843 1.63,-67.375 1.08,-13.55 4.31,-25.16 9.74,-34.89 4.3,-10.848 11.89,-19.239 22.72,-25.18 10.83,-5.961 23.29,-8.93 37.35,-8.93 9.76,0 19.22,1.34 28.42,4.063 9.17,2.699 21.36,8.367 36.52,17.058 l 9.76,-11.39 c -56.31,-47.641 -104.99,-81.43 -146.09,-101.461 m -285.79,455.426 c -31.41,-10.852 -54.67,-19.246 -69.83,-25.157 -15.15,-5.988 -30.31,-14.914 -45.44,-26.812 -27.09,-18.418 -46.57,-41.145 -58.45,-68.176 -11.92,-27.082 -17.88,-61.168 -17.88,-102.285 0,-48.715 8.13,-86.055 24.38,-112.047 16.23,-25.957 39.49,-38.949 69.8,-38.949 30.3,0 54.12,10.801 71.44,32.449 17.3,21.66 25.98,51.422 25.98,89.32 v 251.657" /><path
         id="path20"
         style="fill:#201d1c;fill-opacity:1;fill-rule:nonzero;stroke:none"
         d="m 3510.79,319.828 v 19.481 c 28.13,2.152 48.96,5.652 62.51,10.543 13.53,4.839 25.16,13.207 34.91,25.089 7.55,10.77 12.97,26.688 16.23,47.758 3.24,21.039 4.87,56.949 4.87,107.68 v 665.501 c 0,48.57 -2.19,84.45 -6.5,107.66 -4.33,23.21 -12.99,43.46 -25.96,60.73 -11.95,16.18 -25.74,27.79 -41.41,34.8 -15.69,7 -37.08,11.07 -64.14,12.16 l -3.23,17.81 c 21.63,4.31 40.29,8.05 56.01,11.32 15.67,3.23 31.09,6.73 46.27,10.53 15.14,3.77 31.61,7.83 49.42,12.14 17.76,4.31 39.03,9.71 63.79,16.2 25.82,6.48 47.38,12.15 64.58,17.01 17.22,4.85 33.09,9.69 47.64,14.55 14.5,4.89 29.32,9.73 44.38,14.6 15.08,4.84 33.36,10.49 54.89,16.99 V 530.379 c 0,-24.84 0.27,-45.879 0.82,-63.16 0.54,-17.27 1.63,-31.578 3.24,-42.891 1.63,-11.34 3.8,-20.777 6.5,-28.348 2.7,-7.57 6.23,-14.601 10.56,-21.039 8.63,-11.882 19.73,-20.25 33.28,-25.089 13.53,-4.891 34.92,-8.391 64.14,-10.543 v -19.481 h -522.8" /><path
         id="path22"
         style="fill:#201d1c;fill-opacity:1;fill-rule:nonzero;stroke:none"
         d="m 4557.18,326.371 c -43.85,-18.422 -88.37,-27.66 -133.65,-27.66 -63.5,0 -116.79,17.367 -159.81,52.059 -26.93,21.679 -45.76,48.808 -56.52,81.371 -10.75,32.5 -16.13,78.629 -16.13,138.293 v 486.496 h -199.7 c 22.72,9.75 42.74,18.93 60.07,27.61 17.3,8.64 33.28,17.3 47.88,25.96 14.62,8.66 29.25,17.86 43.85,27.62 14.62,9.73 31.63,21.63 51.11,35.72 48.45,35.71 92.02,71.96 130.78,108.78 16.13,15.13 30.39,28.93 42.78,41.38 12.38,12.44 24.18,25.43 35.52,38.98 11.31,13.53 22.6,28.13 33.92,43.82 11.29,15.7 24.47,34.36 39.53,56.04 v -331.22 h 204.58 l -40.59,-74.69 H 4476.81 V 588.316 c 0,-61.796 10.27,-106.007 30.85,-132.605 20.56,-26.57 55.21,-39.852 103.92,-39.852 15.13,0 29.22,1.071 42.21,3.262 13,2.168 29.76,7.027 50.32,14.649 l 9.76,-13.02 c -60.63,-44.48 -112.85,-75.941 -156.69,-94.379" /><path
         id="path24"
         style="fill:#201d1c;fill-opacity:1;fill-rule:nonzero;stroke:none"
         d="m 5288.61,319.828 v 19.481 c 30.29,3.242 50.58,12.441 60.87,27.601 10.29,15.149 15.43,45.469 15.43,90.918 v 428.637 c 0,29.223 -1.37,51.144 -4.09,65.742 -2.72,14.621 -8.44,27.859 -17.18,39.781 -7.66,10.802 -18,19.492 -31.09,25.982 -13.09,6.5 -26.72,9.73 -40.88,9.73 -18.54,0 -37.88,-4.62 -58.05,-13.79 -20.2,-9.2 -42.82,-24.625 -67.88,-46.277 V 448.102 c 0,-12.993 0.53,-23.852 1.6,-32.481 1.07,-8.672 2.17,-15.699 3.26,-21.121 1.05,-5.43 2.68,-10.828 4.87,-16.23 5.4,-11.918 12.99,-20.848 22.72,-26.79 9.76,-5.96 24.36,-10.019 43.85,-12.171 v -19.481 h -491.95 v 19.481 c 31.39,2.152 54.65,5.652 69.81,10.543 15.16,4.839 27.61,13.207 37.35,25.089 8.66,11.868 14.62,28.047 17.86,48.559 3.26,20.512 4.86,56.148 4.86,106.879 v 665.501 c 0,48.57 -2.19,84.45 -6.49,107.66 -4.34,23.21 -12.46,43.46 -24.36,60.73 -11.92,16.18 -25.72,27.79 -41.39,34.8 -15.71,7 -37.64,11.07 -65.76,12.16 l -1.63,17.81 c 22.75,4.31 42.75,8.35 60.09,12.12 17.3,3.79 33.8,7.57 49.49,11.34 15.7,3.79 31.9,7.86 48.59,12.16 16.69,4.31 35.79,9.17 57.35,14.57 22.58,6.48 42.21,11.88 58.9,16.21 16.69,4.31 32.58,8.86 47.64,13.75 15.06,4.86 30.66,9.7 46.82,14.57 16.13,4.84 34.96,11.07 56.52,18.62 V 991.867 c 15.13,12.943 28.12,23.743 38.95,32.383 10.8,8.61 20.56,16.18 29.22,22.68 8.66,6.45 16.79,12.38 24.36,17.78 7.56,5.38 16.22,11.32 25.98,17.81 37.88,24.82 73.31,42.92 106.35,54.26 32.99,11.29 66.81,16.98 101.46,16.98 59.54,0 104.45,-18.37 134.77,-55.03 15.16,-18.37 25.98,-40.22 32.46,-65.6 6.49,-25.35 9.75,-60.728 9.75,-106.056 V 498 l 1.63,-40.512 c 1.05,-23.718 1.88,-40.75 2.44,-51 0.53,-10.238 3.5,-19.679 8.92,-28.316 6.5,-11.871 15.94,-20.781 28.4,-26.711 12.43,-5.941 31.12,-10 56.03,-12.152 v -19.481 h -457.85" /><path
         id="path26"
         style="fill:#201d1c;fill-opacity:1;fill-rule:nonzero;stroke:none"
         d="m 6484.37,475.211 c -17.86,-36.332 -42.78,-67.52 -74.67,-93.551 -31.95,-26.012 -70.12,-46.351 -114.48,-61 -44.4,-14.601 -92.55,-21.949 -144.5,-21.949 -15.16,0 -30.02,0.519 -44.65,1.508 -14.59,1 -30.6,3.019 -47.9,5.992 -17.3,3.019 -36.26,6.828 -56.82,11.48 -20.56,4.668 -44.93,11.321 -73.06,20 -18.42,5.399 -33.29,9.731 -44.65,12.989 -11.36,3.238 -21.92,6.48 -31.65,9.742 -9.76,3.226 -19.22,6.488 -28.42,9.726 -9.2,3.262 -20.29,7.571 -33.28,12.993 l -16.23,323.089 h 16.23 c 25.98,-59.539 54.37,-113.382 85.25,-161.531 30.83,-48.179 63.31,-89.051 97.4,-122.578 34.11,-33.582 68.73,-59.269 103.91,-77.133 35.16,-17.859 70.08,-26.789 104.72,-26.789 35.72,0 64.38,10.832 86.06,32.531 21.63,21.68 32.46,49.879 32.46,84.598 0,35.774 -11.12,65.043 -33.29,87.844 -22.19,22.769 -61.97,43.933 -119.32,63.449 l -79.56,27.664 c -103.91,35.766 -178.05,75.082 -222.43,117.93 -44.4,42.82 -66.57,94.062 -66.57,153.746 0,37.934 8.93,73.187 26.79,105.691 17.86,32.528 42.21,60.728 73.07,84.598 30.85,23.87 67.37,42.58 109.58,56.13 42.22,13.56 88.23,20.34 138.01,20.34 43.28,0 87.12,-3.26 131.5,-9.73 44.38,-6.49 96.86,-18.42 157.5,-35.74 l 16.25,-266.254 h -16.25 c -17.33,42.215 -37.91,81.195 -61.71,116.91 -23.82,35.696 -49.24,66.544 -76.3,92.534 -27.05,25.98 -54.67,46.27 -82.8,60.87 -28.17,14.63 -55.2,21.92 -81.19,21.92 -31.41,0 -58.17,-10.58 -80.36,-31.72 -22.19,-21.17 -33.29,-46.91 -33.29,-77.25 0,-65.088 51.42,-114.432 154.26,-148.057 l 110.39,-35.765 c 86.59,-28.223 149.37,-61.848 188.34,-100.875 38.96,-39.051 58.45,-87.833 58.45,-146.399 0,-42.309 -8.93,-81.625 -26.79,-117.953" /><path
         id="path28"
         style="fill:#201d1c;fill-opacity:1;fill-rule:nonzero;stroke:none"
         d="m 6535.5,319.828 v 19.481 c 29.22,2.152 50.59,5.671 64.14,10.543 13.53,4.886 24.6,13.257 33.28,25.179 8.64,11.899 14.6,28.129 17.86,48.707 3.24,20.543 4.87,56.262 4.87,107.16 v 266.274 c 0,23.797 -0.56,44.644 -1.63,62.504 -1.1,17.859 -3,33.285 -5.67,46.254 -2.73,12.992 -5.96,24.379 -9.76,34.109 -3.79,9.734 -8.93,18.934 -15.42,27.594 -11.93,15.156 -25.72,26.226 -41.42,33.287 -15.69,7.03 -37.61,11.63 -65.74,13.79 l -1.63,16.25 c 21.66,4.31 40.32,8.38 56.04,12.17 15.67,3.8 31.09,7.86 46.25,12.19 15.16,4.31 31.68,8.91 49.51,13.8 17.88,4.86 39.22,11.07 64.14,18.66 24.89,7.56 46.01,13.82 63.33,18.66 17.3,4.89 33.53,9.76 48.71,14.62 15.13,4.87 30.29,10 45.45,15.43 15.16,5.4 33.02,11.9 53.58,19.49 V 530.898 c 0,-24.918 0.27,-46.007 0.82,-63.308 0.54,-17.352 1.61,-31.68 3.24,-43.039 1.63,-11.371 4.06,-20.86 7.3,-28.422 3.26,-7.59 7.03,-14.598 11.36,-21.098 8.66,-11.922 19.76,-20.293 33.31,-25.179 13.5,-4.872 34.89,-8.391 64.11,-10.543 v -19.481 z m 403.45,989.582 c -9.19,-21.12 -21.65,-39.25 -37.34,-54.41 -15.7,-15.16 -34.09,-27.34 -55.19,-36.52 -21.11,-9.19 -43.6,-13.79 -67.39,-13.79 -23.82,0 -46.01,4.6 -66.57,13.79 -20.56,9.18 -38.71,21.36 -54.38,36.52 -15.69,15.16 -28.15,33.29 -37.35,54.41 -9.19,21.09 -13.79,43.55 -13.79,67.37 0,23.79 4.6,46.01 13.79,66.57 9.2,20.56 21.36,38.69 36.55,54.38 15.13,15.69 33.28,28.15 54.38,37.34 21.11,9.2 43.55,13.8 67.37,13.8 23.79,0 46.28,-4.6 67.39,-13.8 21.1,-9.19 39.49,-21.38 55.19,-36.52 15.69,-15.18 28.15,-33.28 37.34,-54.37 9.18,-21.13 13.8,-43.61 13.8,-67.4 0,-23.82 -4.62,-46.28 -13.8,-67.37" /><path
         id="path30"
         style="fill:#201d1c;fill-opacity:1;fill-rule:nonzero;stroke:none"
         d="m 8097.38,319.828 v 19.481 c 30.29,3.242 50.58,12.441 60.9,27.601 10.27,15.149 15.4,45.469 15.4,90.918 v 410.777 c 0,37.86 -1.36,66.571 -4.06,86.036 -2.75,19.488 -7.93,35.179 -15.57,47.099 -6.55,10.81 -16.65,19.47 -30.25,25.96 -13.65,6.5 -27.56,9.76 -41.75,9.76 -18.54,0 -37.08,-4.62 -55.62,-13.82 -18.54,-9.19 -39.8,-24.62 -63.82,-46.249 V 457.828 c 0,-22.719 1.07,-41.387 3.26,-56.008 2.17,-14.621 5.94,-26.281 11.37,-34.91 5.4,-8.672 12.99,-15.16 22.72,-19.488 9.76,-4.332 22.75,-7.031 38.98,-8.113 V 319.828 H 7602.2 v 19.481 c 15.13,1.082 27.59,3.781 37.32,8.113 9.76,4.328 17.3,10.816 22.73,19.488 5.43,8.629 9.2,20.289 11.39,34.91 2.14,14.621 3.23,33.289 3.23,56.008 v 410.777 c 0,36.79 -1.36,64.137 -4.06,81.973 -2.7,17.883 -8.4,33.817 -17.03,47.906 -6.5,11.896 -16.52,21.116 -30.05,27.586 -13.55,6.5 -28.42,9.76 -44.65,9.76 -18.42,0 -36.52,-4.33 -54.38,-12.99 -17.88,-8.69 -38.17,-23.82 -60.9,-45.449 V 457.828 c 0,-22.719 1.07,-41.387 3.26,-56.008 2.14,-14.621 5.94,-26.281 11.37,-34.91 5.4,-8.672 13.23,-15.16 23.52,-19.488 10.3,-4.332 23,-7.031 38.15,-8.113 v -19.481 h -493.55 v 19.481 c 31.37,2.121 54.65,5.632 69.81,10.492 15.16,4.871 27.61,13.211 37.35,25.09 9.73,11.871 15.96,28.031 18.66,48.507 2.7,20.493 4.06,56.043 4.06,106.723 v 265.227 c 0,23.722 -0.56,44.453 -1.63,62.234 -1.07,17.789 -2.7,33.164 -4.86,46.109 -2.17,12.918 -5.16,24.258 -8.93,33.965 -3.8,9.684 -8.93,18.883 -15.43,27.496 -11.92,15.059 -25.72,26.129 -41.41,33.137 -15.69,7.011 -37.62,11.581 -65.74,13.751 l -1.63,16.17 c 11.92,2.15 22.45,4.29 31.65,6.45 9.2,2.17 16.5,4.31 21.92,6.5 25.99,6.42 50.88,12.63 74.7,18.56 23.79,5.94 47.62,12.41 71.43,19.42 23.8,6.98 48.72,14.55 74.7,22.65 25.96,8.06 54.65,17.5 86.03,28.3 l 66.57,22.63 V 998.484 c 9.76,9.756 18.4,18.396 25.99,25.986 7.56,7.57 15.13,14.33 22.72,20.29 7.57,5.94 15.43,11.9 23.56,17.86 8.1,5.93 18.1,12.7 30.02,20.29 37.88,24.89 72.72,42.75 104.6,53.58 31.85,10.8 64.98,16.23 99.44,16.23 107.61,0 171.12,-51.42 190.48,-154.236 11.92,10.806 22.19,20.296 30.88,28.416 8.64,8.1 16.76,15.43 24.33,21.92 7.57,6.5 14.86,12.44 21.92,17.86 7.03,5.4 14.87,10.8 23.55,16.23 34.63,23.8 69.25,41.41 103.9,52.77 34.62,11.37 69.27,17.04 103.91,17.04 124.45,0 186.72,-76.55 186.72,-229.638 V 497.781 l 1.63,-40.441 c 1.07,-23.719 1.87,-40.68 2.43,-50.922 0.54,-10.27 3.5,-19.656 8.93,-28.297 6.5,-11.871 15.96,-20.75 28.42,-26.691 12.43,-5.942 31.09,-10 56.01,-12.121 v -19.481 h -457.86" /><path
         id="path32"
         style="fill:#201d1c;fill-opacity:1;fill-rule:nonzero;stroke:none"
         d="m 9483,582.035 c -20.09,-56.836 -47.49,-106.344 -82.21,-148.566 -34.77,-42.207 -75.48,-75.231 -122.17,-99.02 -46.66,-23.801 -97.15,-35.75 -151.41,-35.75 -31.5,0 -58.9,4.36 -82.23,13 -23.36,8.66 -49.15,23.789 -77.35,45.473 v -148.32 c 0,-24.622 0.24,-45.184 0.8,-61.821 0.54,-16.551 1.88,-30.73 4.06,-42.511 2.15,-11.7817 4.87,-21.3911 8.13,-28.8794 3.24,-7.4922 7.54,-14.4492 12.97,-20.8515 9.76,-11.7774 22.75,-20.0508 38.98,-24.8907 16.23,-4.789 41.65,-8.2695 76.3,-10.4375 V 0 h -578 v 19.4609 c 36.79,3.2579 63.33,7.8086 79.56,13.75 16.23,5.9297 30.29,16.4688 42.21,31.5782 10.81,11.8711 17.86,28.0507 21.12,48.5629 2.14,8.636 3.77,17.296 4.87,25.886 1.04,8.66 1.87,18.91 2.43,30.782 0.54,11.871 0.8,27.011 0.8,45.351 V 794.93 c 0,23.746 -0.56,44.527 -1.63,62.336 -1.09,17.808 -2.7,33.187 -4.86,46.132 -2.19,12.942 -5.14,24.282 -8.93,33.989 -3.8,9.73 -8.93,18.906 -15.43,27.543 -11.92,15.109 -25.72,26.179 -41.38,33.164 -15.72,7.006 -37.64,11.606 -65.77,13.796 l -1.63,16.18 c 20.56,4.31 38.69,8.34 54.4,12.11 15.67,3.8 31.1,7.86 46.28,12.17 15.13,4.31 31.61,8.9 49.42,13.77 17.76,4.84 39.58,11.02 65.42,18.59 25.82,7.57 47.33,13.75 64.55,18.61 17.23,4.89 33.12,9.73 47.64,14.6 14.53,4.84 29.34,9.98 44.4,15.38 15.06,5.38 32.83,11.87 53.29,19.41 v -105.52 c 44.48,37.88 86.01,64.94 124.55,81.19 38.54,16.23 78.44,24.33 119.71,24.33 44.5,0 85.2,-9.48 122.11,-28.39 36.91,-18.95 68.66,-45.47 95.28,-79.56 26.59,-34.09 47.2,-74.697 61.87,-121.776 14.65,-47.082 22,-99.32 22,-156.668 0,-66.031 -10.05,-127.468 -30.15,-184.281 m -312.72,386.422 c -26.16,62.213 -62.09,93.353 -107.86,93.353 -13.09,0 -26.15,-2.72 -39.22,-8.12 -13.09,-5.43 -31.61,-15.69 -55.57,-30.85 V 383.16 c 23.96,-23.851 50.66,-35.75 80.07,-35.75 51.22,0 91,31.93 119.34,95.789 28.32,63.871 42.49,153.168 42.49,267.91 0,109.321 -13.09,195.086 -39.25,257.348" /><path
         id="path34"
         style="fill:#201d1c;fill-opacity:1;fill-rule:nonzero;stroke:none"
         d="m 9493.65,319.828 v 19.481 c 28.13,2.152 48.96,5.652 62.51,10.543 13.53,4.839 25.16,13.207 34.91,25.089 7.55,10.77 13,26.688 16.23,47.758 3.24,21.039 4.87,56.949 4.87,107.68 v 665.501 c 0,48.57 -2.19,84.45 -6.5,107.66 -4.33,23.21 -12.99,43.46 -25.96,60.73 -11.95,16.18 -25.74,27.79 -41.41,34.8 -15.69,7 -37.08,11.07 -64.14,12.16 l -3.23,17.81 c 21.63,4.31 40.29,8.05 56.01,11.32 15.67,3.23 31.09,6.73 46.27,10.53 15.14,3.77 31.61,7.83 49.42,12.14 17.76,4.31 39.03,9.71 63.8,16.2 25.81,6.48 47.37,12.15 64.57,17.01 17.23,4.85 33.09,9.69 47.64,14.55 14.5,4.89 29.32,9.73 44.38,14.6 15.08,4.84 33.36,10.49 54.89,16.99 V 530.379 c 0,-24.84 0.27,-45.879 0.83,-63.16 0.53,-17.27 1.63,-31.578 3.23,-42.891 1.63,-11.34 3.8,-20.777 6.5,-28.348 2.7,-7.57 6.23,-14.601 10.56,-21.039 8.66,-11.882 19.73,-20.25 33.28,-25.089 13.53,-4.891 34.92,-8.391 64.09,-10.543 v -19.481 h -522.75" /><path
         id="path36"
         style="fill:#201d1c;fill-opacity:1;fill-rule:nonzero;stroke:none"
         d="m 10814,570.668 c -7.6,-17.859 -15.1,-33.848 -22.7,-47.906 -7.6,-14.063 -16,-27.594 -25.2,-40.582 -9.2,-12.989 -19.7,-27.059 -31.6,-42.219 -37.9,-45.449 -83.4,-80.359 -136.4,-104.723 -53,-24.347 -111.5,-36.519 -175.3,-36.519 -60.7,0 -117.2,10.562 -169.7,31.66 -52.5,21.121 -98,50.34 -136.4,87.691 -38.4,37.321 -68.5,81.41 -90.1,132.305 -21.7,50.852 -32.48,106.059 -32.48,165.621 0,60.582 11.38,117.422 34.08,170.461 22.8,53.016 54.1,99.293 94.2,138.813 40,39.51 86.8,70.63 140.4,93.35 53.6,22.75 111.2,34.09 172.9,34.09 54.2,0 103.9,-8.1 149.4,-24.33 45.5,-16.25 85.5,-39.54 120.2,-69.81 34.6,-30.34 63,-67.125 85.2,-110.41 22.2,-43.308 36.5,-91.484 43,-144.5 h -537.4 c 1.1,-202.433 91.5,-303.621 271.2,-303.621 68.2,0 126,16.762 173.7,50.336 18.4,11.898 33,24.066 43.8,36.547 10.8,12.406 24.4,31.094 40.6,55.984 l 14.6,-6.472 c -9.7,-25.985 -18.4,-47.907 -26,-65.766 m -267.9,300.07 c 0,13.117 -0.2,24.844 -0.8,35.258 -0.5,10.391 -1.1,19.977 -1.6,28.711 -0.5,8.734 -1.4,18.563 -2.4,29.535 -4.4,59.048 -15.2,101.998 -32.5,128.808 -17.3,26.76 -42.2,40.2 -74.7,40.2 -45.4,0 -79.8,-26.55 -103.1,-79.59 -23.3,-53.07 -34.9,-129.93 -34.9,-230.512 h 250 v 47.59" /></g></g></svg>